PathFileType	4	(X/Y/Z)	C:/Users/opensim2020/Desktop/walking_exp_matlab/subject03_walking12_straight_03.trc																																																																																																																																														
DataRate	CameraRate	NumFrames	NumMarkers	Units	OrigDataRate	OrigDataStartFrame	OrigNumFrames																																																																																																																																										
100	100	7	48	mm	100	1820	185																																																																																																																																										
Frame#	Time	LFHD			RFHD			LBHD			RBHD			C7			T10			CLAV			STRN			RBAK			LSHO			LUPA			LELB			LFRM			LWRA			LWRB			LFIN			RSHO			RUPA			RELB			RFRM			RWRA			RWRB			RFIN			LASI			RASI			LPSI			RPSI			LTHI			LKNE			LTIB			LANK			LHEE			LTOE			RTHI			RKNE			RTIB			RANK			RHEE			RTOE			*39			*40			*41			*42			*43			*44			*45			*46			*47		
		X1	Y1	Z1	X2	Y2	Z2	X3	Y3	Z3	X4	Y4	Z4	X5	Y5	Z5	X6	Y6	Z6	X7	Y7	Z7	X8	Y8	Z8	X9	Y9	Z9	X10	Y10	Z10	X11	Y11	Z11	X12	Y12	Z12	X13	Y13	Z13	X14	Y14	Z14	X15	Y15	Z15	X16	Y16	Z16	X17	Y17	Z17	X18	Y18	Z18	X19	Y19	Z19	X20	Y20	Z20	X21	Y21	Z21	X22	Y22	Z22	X23	Y23	Z23	X24	Y24	Z24	X25	Y25	Z25	X26	Y26	Z26	X27	Y27	Z27	X28	Y28	Z28	X29	Y29	Z29	X30	Y30	Z30	X31	Y31	Z31	X32	Y32	Z32	X33	Y33	Z33	X34	Y34	Z34	X35	Y35	Z35	X36	Y36	Z36	X37	Y37	Z37	X38	Y38	Z38	X39	Y39	Z39	X40	Y40	Z40	X41	Y41	Z41	X42	Y42	Z42	X43	Y43	Z43	X44	Y44	Z44	X45	Y45	Z45	X46	Y46	Z46	X47	Y47	Z47	X48	Y48	Z48
																																																																																																																																																	
162	1.61	977.86279	1622.07605	-993.29675	938.28864	1614.60889	-866.5874	852.80933	1587.49841	-1030.83655	818.3299	1579.10571	-905.21515	804.53351	1411.17859	-980.04364	793.80957	1095.8894	-983.18311	928.72333	1342.9425	-972.0943	987.62341	1182.24866	-977.97369	759.55676	1227.63184	-888.41986	885.43127	1380.33752	-1129.34912	892.6712	1185.04773	-1206.38135	911.27637	1062.9353	-1219.53357	955.13306	939.84613	-1216.09241	992.34106	828.37524	-1182.7218	969.89417	827.15833	-1233.42993	1002.69965	750.61798	-1221.98901	867.5957	1362.77417	-816.56665	893.68622	1146.20886	-735.55286	927.79462	1039.75281	-716.88757	974.34741	911.02924	-710.40399	1027.89233	825.03522	-742.41437	996.67773	813.43719	-699.8916	1036.08838	749.88916	-706.71368	966.15332	940.61005	-1092.30969	955.24225	940.25946	-856.17725	800.98859	956.30658	-1051.43958	796.51178	970.47388	-902.80469	994.56085	648.07477	-1152.93555	1063.06726	482.2124	-1125.97754	1000.8291	292.35904	-1126.07349	956.94501	88.29357	-1087.34131	911.10382	57.88642	-1048.453	1095.74219	37.30657	-1065.45105	881.98401	643.4668	-826.15051	877.27405	465.95654	-866.78571	810.42224	283.80066	-867.69836	758.01392	74.55683	-921.42712	710.15576	46.38686	-971.91803	896.24799	31.78576	-938.32416	886.77899	1683.00098	-962.17108	NaN	NaN	NaN	NaN	NaN	NaN	NaN	NaN	NaN	NaN	NaN	NaN	NaN	NaN	NaN	NaN	NaN	NaN	NaN	NaN	NaN	NaN	NaN	NaN
163	1.62	991.00372	1620.67798	-992.68396	951.16827	1613.33276	-865.98224	866.08649	1585.85876	-1030.46899	831.24304	1577.50134	-904.8595	817.78491	1409.80811	-979.7738	806.15155	1094.53784	-983.56281	941.85126	1341.26257	-971.33948	1000.20337	1180.35681	-976.84692	771.90625	1226.25635	-888.30426	899.56281	1378.74939	-1128.90259	904.49176	1182.91516	-1205.34021	920.21198	1060.41028	-1218.74609	958.80573	935.45477	-1216.53796	990.27924	821.67865	-1184.82349	968.05945	822.33063	-1235.76038	996.75305	743.92212	-1225.29285	880.03107	1361.10925	-816.12469	907.97076	1145.48181	-734.07935	943.86572	1039.85559	-714.78345	994.54578	912.76398	-708.24567	1051.56445	829.10895	-740.1557	1020.24158	815.90613	-698.23071	1062.14246	754.04297	-704.97894	979.51453	939.20441	-1090.99695	965.23157	938.28857	-855.34357	813.82574	954.49866	-1052.51501	807.64856	968.68213	-903.87451	1009.99896	647.72552	-1152.46497	1078.16467	482.05896	-1124.35608	1027.09009	289.16333	-1126.64978	997.3714	82.09108	-1089.99133	953.14764	48.44616	-1051.60596	1138.98145	38.83958	-1066.35034	888.87787	642.27576	-825.97644	882.15118	464.73041	-866.7218	813.21173	283.41437	-868.05334	758.07947	74.73132	-922.01276	710.15619	46.85981	-972.45673	896.49512	31.84686	-938.12634	899.74512	1681.49036	-961.86261	NaN	NaN	NaN	NaN	NaN	NaN	NaN	NaN	NaN	NaN	NaN	NaN	NaN	NaN	NaN	NaN	NaN	NaN	NaN	NaN	NaN	NaN	NaN	NaN
164	1.63	1004.17163	1619.11096	-992.01544	964.0202	1611.8551	-865.42566	879.36816	1583.95569	-1030.08032	844.19159	1575.7074	-904.65552	831.04431	1408.16663	-979.42047	818.66785	1092.90063	-984.07434	955.05975	1339.38391	-970.5849	1012.83557	1178.21448	-975.63593	784.22369	1224.74609	-888.53448	913.72729	1376.97388	-1128.50195	916.25555	1180.60315	-1204.36206	929.03009	1057.59802	-1217.87329	962.2132	931.12201	-1217.203	988.31506	815.58215	-1186.98621	966.38879	818.21454	-1238.30505	990.77985	737.97949	-1228.5675	892.45355	1359.27295	-815.68408	922.08826	1144.51587	-732.71326	959.72028	1039.6958	-712.78326	1014.50726	914.37048	-706.27148	1074.88098	833.21588	-738.08179	1043.43286	818.37042	-696.75562	1087.80444	758.3772	-703.34619	993.43958	937.44098	-1090.07007	975.71466	936.185	-854.42279	826.76837	952.67059	-1053.64771	818.81073	966.67297	-905.04932	1024.94006	646.789	-1152.08679	1092.62927	481.48486	-1122.37073	1052.80151	286.43204	-1127.35669	1037.3551	76.90402	-1093.22339	994.98938	40.89556	-1055.34399	1181.48267	41.27784	-1067.31982	896.24854	640.86816	-825.87488	887.64337	463.28226	-866.85437	816.39227	282.85764	-868.58966	758.44043	75.04904	-922.64026	710.36517	47.42973	-973.2312	896.35822	31.66847	-938.60205	912.67114	1679.78015	-961.52002	NaN	NaN	NaN	NaN	NaN	NaN	NaN	NaN	NaN	NaN	NaN	NaN	NaN	NaN	NaN	NaN	NaN	NaN	NaN	NaN	NaN	NaN	NaN	NaN
165	1.64	1017.31226	1617.41138	-991.3866	976.88458	1610.2196	-864.87634	892.70343	1581.97925	-1029.70947	857.13184	1573.72791	-904.41724	844.50525	1406.22913	-979.2655	831.15918	1091.15259	-984.70551	968.36755	1337.32739	-969.84161	1025.54443	1175.92993	-974.48267	796.42877	1223.13513	-888.95587	928.00873	1375.02087	-1128.19263	928.02325	1178.23328	-1203.5752	937.85065	1054.93713	-1217.1449	965.75867	927.14758	-1217.78503	986.08728	809.92639	-1188.86279	964.72357	814.23572	-1240.29248	984.84784	732.75708	-1231.72363	904.92731	1357.28137	-815.26123	936.03656	1143.27869	-731.41656	975.25616	1039.30066	-710.99286	1034.15112	915.95221	-704.58575	1097.31543	837.38086	-736.03644	1066.2074	820.86426	-695.513	1112.99084	762.81512	-701.88702	1006.74011	935.26373	-1088.72668	986.26569	933.86719	-853.30542	839.95251	950.69073	-1054.83972	829.89642	964.33728	-906.07959	1039.09766	645.32684	-1151.30652	1106.7655	480.46463	-1120.41736	1078.06018	284.05261	-1127.94019	1076.83569	73.519	-1096.5304	1036.10095	35.13874	-1059.62305	1223.03564	45.40241	-1068.22119	903.98639	639.41144	-825.85461	893.61908	461.71994	-867.02252	819.95557	282.32312	-869.22852	758.82397	75.47617	-923.41656	710.77716	48.23716	-974.16962	896.4903	31.62042	-938.73907	925.5932	1677.89685	-961.1499	NaN	NaN	NaN	NaN	NaN	NaN	NaN	NaN	NaN	NaN	NaN	NaN	NaN	NaN	NaN	NaN	NaN	NaN	NaN	NaN	NaN	NaN	NaN	NaN
166	1.65	1030.41113	1615.56677	-990.60022	989.771	1608.43066	-864.28693	906.04755	1579.82996	-1029.36841	870.1333	1571.64441	-904.09967	858.15668	1404.47437	-979.39288	843.74023	1089.29688	-985.36957	981.75769	1335.16235	-969.09662	1038.23962	1173.47192	-973.25293	808.54877	1221.2865	-889.63116	942.40833	1372.95288	-1127.84241	939.51422	1175.56323	-1203.11511	946.64117	1052.34558	-1216.51013	969.4859	923.54547	-1218.41589	984.91284	805.31299	-1191.05994	963.62573	811.09943	-1242.52576	978.99445	728.24982	-1234.77222	917.36108	1355.0968	-814.82446	949.79816	1141.80554	-730.27106	990.75122	1038.7738	-709.36835	1053.38892	917.38593	-703.01654	1119.48901	841.27509	-734.40851	1088.46729	823.30225	-694.41675	1137.62378	767.37817	-700.47858	1020.65961	933.18811	-1087.45764	997.08124	931.53723	-852.28564	853.3045	948.48999	-1056.09827	841.31708	961.95001	-907.38397	1052.40466	643.17401	-1150.48267	1120.50891	478.75546	-1118.38538	1102.61877	282.30573	-1128.81396	1115.03369	71.63536	-1099.98499	1075.92078	30.94822	-1064.09509	1262.53918	50.58304	-1069.11865	912.05786	638.00043	-825.85632	899.88544	460.22778	-867.22113	823.5849	281.63672	-869.80078	759.3219	75.99603	-924.15576	710.92145	49.26625	-974.97357	896.56268	31.55573	-938.89056	938.5459	1675.89746	-960.854	NaN	NaN	NaN	NaN	NaN	NaN	NaN	NaN	NaN	NaN	NaN	NaN	NaN	NaN	NaN	NaN	NaN	NaN	NaN	NaN	NaN	NaN	NaN	NaN
167	1.66	1043.69727	1613.76941	-990.11041	1002.63159	1606.59924	-863.73053	919.41351	1577.61267	-1029.00024	883.21655	1569.42957	-903.87018	871.54962	1402.55664	-979.35217	856.50665	1087.26917	-986.49579	995.16187	1332.89734	-968.33112	1051.02222	1171.00171	-972.01776	820.87042	1219.64209	-890.39075	956.98822	1370.79858	-1127.52026	951.16614	1173.17236	-1202.6886	955.45215	1049.91931	-1216.02661	973.62152	920.33258	-1219.09143	983.61066	800.83154	-1192.96448	962.87964	808.32373	-1244.37756	973.61688	724.68127	-1237.73779	929.70459	1352.81128	-814.43262	963.40564	1140.23254	-729.30084	1006.14917	1038.11633	-708.07257	1072.27344	918.69592	-701.75549	1140.9873	845.01849	-733.0083	1109.98608	825.56207	-693.53394	1161.57593	772.03503	-699.15466	1034.68665	931.05725	-1086.2157	1007.66858	929.10168	-851.18146	866.72095	946.33142	-1057.33447	852.85553	959.38617	-908.60974	1065.14417	640.48962	-1150.03284	1134.05957	476.93884	-1116.12146	1126.4967	281.2981	-1129.65674	1151.60388	71.22692	-1103.61206	1114.08728	28.5641	-1068.89111	1299.78064	56.83218	-1069.96069	920.55896	636.59467	-825.85333	906.19513	458.92465	-867.35455	827.64252	281.51456	-870.31494	759.67035	76.79305	-924.85852	711.21851	50.53983	-975.7265	896.64935	31.53001	-939.0697	951.4762	1673.82117	-960.51123	NaN	NaN	NaN	NaN	NaN	NaN	NaN	NaN	NaN	NaN	NaN	NaN	NaN	NaN	NaN	NaN	NaN	NaN	NaN	NaN	NaN	NaN	NaN	NaN
168	1.67	1056.84082	1611.83765	-989.29749	1015.53461	1604.73792	-863.15558	932.86133	1575.39648	-1028.68994	896.2746	1567.18677	-903.66046	885.13879	1400.58215	-979.47168	869.24353	1085.47925	-987.11938	1008.58936	1330.65381	-967.58557	1063.85498	1168.53296	-970.75635	833.17017	1217.81042	-891.21216	971.77612	1368.6272	-1127.20044	962.85144	1170.83032	-1202.37073	964.36182	1047.48022	-1215.72229	977.82111	917.33337	-1219.66089	982.96277	797.14539	-1194.81067	962.75665	806.20563	-1246.31519	968.12457	721.19147	-1240.06995	941.76587	1350.59119	-813.9903	976.90161	1138.59302	-728.52795	1021.32361	1037.32605	-706.99884	1090.72083	919.86749	-700.74384	1161.71716	848.64801	-731.83881	1131.22583	827.98065	-692.86005	1184.86804	776.82202	-697.95343	1048.73389	928.84583	-1085.07092	1018.86804	926.76849	-850.18335	880.27454	943.95929	-1058.61597	864.539	956.90558	-909.98035	1077.02979	637.2373	-1149.54614	1147.37341	474.80685	-1114.0553	1149.59448	280.98676	-1130.53418	1185.89978	72.05432	-1107.03906	1149.73206	27.005	-1074.00586	1334.46069	63.57825	-1070.75891	929.41339	635.18604	-825.90521	913.15314	457.58038	-867.28906	831.77747	281.38385	-870.69727	760.28381	77.74945	-925.33075	711.67285	52.0448	-976.29437	896.74304	31.46845	-939.18079	964.4422	1671.71277	-960.14673	NaN	NaN	NaN	NaN	NaN	NaN	NaN	NaN	NaN	NaN	NaN	NaN	NaN	NaN	NaN	NaN	NaN	NaN	NaN	NaN	NaN	NaN	NaN	NaN
